<mxfile host="app.diagrams.net" agent="Mozilla/5.0 (Windows NT 10.0; Win64; x64) AppleWebKit/537.36 (KHTML, like Gecko) Chrome/132.0.0.0 Safari/537.36" version="26.0.11">
  <diagram name="Page-1" id="wApxX84WCJjRvpBj5n2O">
    <mxGraphModel dx="1290" dy="557" grid="1" gridSize="10" guides="1" tooltips="1" connect="1" arrows="1" fold="1" page="1" pageScale="1" pageWidth="827" pageHeight="1169" math="0" shadow="0">
      <root>
        <mxCell id="0" />
        <mxCell id="1" parent="0" />
        <mxCell id="sk-XKCHZcK_6466tmniM-1" value="Personnage&lt;div&gt;&lt;br&gt;&lt;/div&gt;" style="shape=umlActor;verticalLabelPosition=bottom;verticalAlign=top;html=1;" vertex="1" parent="1">
          <mxGeometry x="110" y="65" width="30" height="60" as="geometry" />
        </mxCell>
        <mxCell id="sk-XKCHZcK_6466tmniM-2" value="Attaque" style="ellipse;whiteSpace=wrap;html=1;" vertex="1" parent="1">
          <mxGeometry x="274" y="60" width="140" height="70" as="geometry" />
        </mxCell>
        <mxCell id="sk-XKCHZcK_6466tmniM-5" value="Avoir des PV" style="ellipse;whiteSpace=wrap;html=1;" vertex="1" parent="1">
          <mxGeometry x="560" y="80" width="140" height="70" as="geometry" />
        </mxCell>
        <mxCell id="sk-XKCHZcK_6466tmniM-7" value="" style="endArrow=none;html=1;rounded=0;entryX=0;entryY=0.5;entryDx=0;entryDy=0;" edge="1" parent="1" target="sk-XKCHZcK_6466tmniM-2">
          <mxGeometry width="50" height="50" relative="1" as="geometry">
            <mxPoint x="150" y="100" as="sourcePoint" />
            <mxPoint x="440" y="270" as="targetPoint" />
          </mxGeometry>
        </mxCell>
        <mxCell id="sk-XKCHZcK_6466tmniM-10" value="&amp;lt;&amp;lt;include&amp;gt;&amp;gt;" style="endArrow=open;endSize=12;dashed=1;html=1;rounded=0;exitX=1;exitY=0.5;exitDx=0;exitDy=0;entryX=0;entryY=0.5;entryDx=0;entryDy=0;" edge="1" parent="1" source="sk-XKCHZcK_6466tmniM-2" target="sk-XKCHZcK_6466tmniM-5">
          <mxGeometry x="-0.0047" width="160" relative="1" as="geometry">
            <mxPoint x="394" y="65" as="sourcePoint" />
            <mxPoint x="510" y="90" as="targetPoint" />
            <mxPoint as="offset" />
          </mxGeometry>
        </mxCell>
        <mxCell id="sk-XKCHZcK_6466tmniM-11" value="Contre-Attaque" style="ellipse;whiteSpace=wrap;html=1;" vertex="1" parent="1">
          <mxGeometry x="274" y="160" width="140" height="70" as="geometry" />
        </mxCell>
        <mxCell id="sk-XKCHZcK_6466tmniM-12" value="" style="endArrow=none;html=1;rounded=0;entryX=0;entryY=0.5;entryDx=0;entryDy=0;" edge="1" parent="1" target="sk-XKCHZcK_6466tmniM-11">
          <mxGeometry width="50" height="50" relative="1" as="geometry">
            <mxPoint x="150" y="100" as="sourcePoint" />
            <mxPoint x="284" y="155" as="targetPoint" />
          </mxGeometry>
        </mxCell>
        <mxCell id="sk-XKCHZcK_6466tmniM-13" value="Avoir des PV" style="ellipse;whiteSpace=wrap;html=1;" vertex="1" parent="1">
          <mxGeometry x="560" y="220" width="140" height="70" as="geometry" />
        </mxCell>
        <mxCell id="sk-XKCHZcK_6466tmniM-14" value="&amp;lt;&amp;lt;include&amp;gt;&amp;gt;" style="endArrow=open;endSize=12;dashed=1;html=1;rounded=0;exitX=1;exitY=0.5;exitDx=0;exitDy=0;entryX=0;entryY=0.5;entryDx=0;entryDy=0;" edge="1" parent="1" source="sk-XKCHZcK_6466tmniM-11" target="sk-XKCHZcK_6466tmniM-13">
          <mxGeometry x="-0.0047" width="160" relative="1" as="geometry">
            <mxPoint x="424" y="260" as="sourcePoint" />
            <mxPoint x="560" y="250" as="targetPoint" />
            <mxPoint as="offset" />
          </mxGeometry>
        </mxCell>
      </root>
    </mxGraphModel>
  </diagram>
</mxfile>
